<svg width="350" height="487" viewBox="0 0 350 487" fill="none" xmlns="http://www.w3.org/2000/svg">
<g clip-path="url(#clip0_5105_872)">
<path d="M166.273 16.4746C156.828 16.5184 147.808 17.3239 139.872 18.7283C116.492 22.8587 112.247 31.5039 112.247 47.4473V68.5036H167.496V75.5223H112.247H91.513C75.4562 75.5223 61.3965 85.1734 56.9987 103.533C51.926 124.577 51.701 137.709 56.9987 159.683C60.926 176.04 70.3049 187.694 86.3616 187.694H105.357V162.452C105.357 144.216 121.135 128.131 139.872 128.131H195.056C210.417 128.131 222.68 115.483 222.68 100.056V47.4473C222.68 32.4746 210.049 21.2272 195.056 18.7283C185.565 17.1484 175.717 16.4307 166.273 16.4746ZM136.394 33.4097C142.101 33.4097 146.762 38.1462 146.762 43.9701C146.762 49.7733 142.101 54.466 136.394 54.466C130.667 54.466 126.027 49.7733 126.027 43.9701C126.027 38.1462 130.667 33.4097 136.394 33.4097Z" fill="url(#paint0_linear_5105_872)"/>
<path d="M224.632 75.041V99.5745C224.632 118.595 208.507 134.604 190.118 134.604H134.934C119.818 134.604 107.309 147.541 107.309 162.679V215.288C107.309 230.26 120.329 239.067 134.934 243.363C152.422 248.505 169.193 249.434 190.118 243.363C204.027 239.335 217.742 231.231 217.742 215.288V194.231H162.558V187.212H217.742H245.367C261.423 187.212 267.407 176.012 272.991 159.202C278.759 141.895 278.514 125.253 272.991 103.052C269.023 87.067 261.444 75.041 245.367 75.041H224.632ZM193.595 208.269C199.322 208.269 203.962 212.961 203.962 218.765C203.962 224.589 199.322 229.325 193.595 229.325C187.888 229.325 183.228 224.589 183.228 218.765C183.228 212.961 187.888 208.269 193.595 208.269Z" fill="url(#paint1_linear_5105_872)"/>
</g>
<path d="M23.2273 439.954H28.2727L40.1364 468.931H40.5455L52.4091 439.954H57.4545V474.863H53.5V448.341H53.1591L42.25 474.863H38.4318L27.5227 448.341H27.1818V474.863H23.2273V439.954ZM76.3622 475.409C73.8395 475.409 71.6634 474.852 69.8338 473.738C68.0156 472.613 66.6122 471.045 65.6236 469.034C64.6463 467.011 64.1577 464.659 64.1577 461.977C64.1577 459.295 64.6463 456.931 65.6236 454.886C66.6122 452.829 67.9872 451.227 69.7486 450.079C71.5213 448.92 73.5895 448.341 75.9531 448.341C77.3168 448.341 78.6634 448.568 79.9929 449.022C81.3224 449.477 82.5327 450.216 83.6236 451.238C84.7145 452.25 85.5838 453.591 86.2315 455.261C86.8793 456.931 87.2031 458.988 87.2031 461.431V463.136H67.0213V459.659H83.1122C83.1122 458.181 82.8168 456.863 82.2259 455.704C81.6463 454.545 80.8168 453.63 79.7372 452.96C78.669 452.289 77.4077 451.954 75.9531 451.954C74.3509 451.954 72.9645 452.352 71.794 453.147C70.6349 453.931 69.7429 454.954 69.1179 456.216C68.4929 457.477 68.1804 458.829 68.1804 460.272V462.591C68.1804 464.568 68.5213 466.244 69.2031 467.619C69.8963 468.983 70.8565 470.022 72.0838 470.738C73.3111 471.443 74.7372 471.795 76.3622 471.795C77.419 471.795 78.3736 471.647 79.2259 471.352C80.0895 471.045 80.8338 470.591 81.4588 469.988C82.0838 469.375 82.5668 468.613 82.9077 467.704L86.794 468.795C86.3849 470.113 85.6974 471.272 84.7315 472.272C83.7656 473.261 82.5724 474.034 81.152 474.591C79.7315 475.136 78.1349 475.409 76.3622 475.409ZM103.959 475.409C101.595 475.409 99.5213 474.846 97.7372 473.721C95.9645 472.596 94.5781 471.022 93.5781 469C92.5895 466.977 92.0952 464.613 92.0952 461.909C92.0952 459.181 92.5895 456.801 93.5781 454.767C94.5781 452.733 95.9645 451.153 97.7372 450.028C99.5213 448.903 101.595 448.341 103.959 448.341C106.322 448.341 108.391 448.903 110.163 450.028C111.947 451.153 113.334 452.733 114.322 454.767C115.322 456.801 115.822 459.181 115.822 461.909C115.822 464.613 115.322 466.977 114.322 469C113.334 471.022 111.947 472.596 110.163 473.721C108.391 474.846 106.322 475.409 103.959 475.409ZM103.959 471.795C105.754 471.795 107.232 471.335 108.391 470.414C109.55 469.494 110.408 468.284 110.964 466.784C111.521 465.284 111.8 463.659 111.8 461.909C111.8 460.159 111.521 458.528 110.964 457.017C110.408 455.505 109.55 454.284 108.391 453.352C107.232 452.42 105.754 451.954 103.959 451.954C102.163 451.954 100.686 452.42 99.527 453.352C98.3679 454.284 97.5099 455.505 96.9531 457.017C96.3963 458.528 96.1179 460.159 96.1179 461.909C96.1179 463.659 96.3963 465.284 96.9531 466.784C97.5099 468.284 98.3679 469.494 99.527 470.414C100.686 471.335 102.163 471.795 103.959 471.795ZM127.004 474.863L119.027 448.681H123.254L128.913 468.727H129.186L134.777 448.681H139.072L144.595 468.659H144.868L150.527 448.681H154.754L146.777 474.863H142.822L137.095 454.75H136.686L130.959 474.863H127.004ZM170.159 475.409C167.636 475.409 165.46 474.852 163.631 473.738C161.812 472.613 160.409 471.045 159.42 469.034C158.443 467.011 157.955 464.659 157.955 461.977C157.955 459.295 158.443 456.931 159.42 454.886C160.409 452.829 161.784 451.227 163.545 450.079C165.318 448.92 167.386 448.341 169.75 448.341C171.114 448.341 172.46 448.568 173.79 449.022C175.119 449.477 176.33 450.216 177.42 451.238C178.511 452.25 179.381 453.591 180.028 455.261C180.676 456.931 181 458.988 181 461.431V463.136H160.818V459.659H176.909C176.909 458.181 176.614 456.863 176.023 455.704C175.443 454.545 174.614 453.63 173.534 452.96C172.466 452.289 171.205 451.954 169.75 451.954C168.148 451.954 166.761 452.352 165.591 453.147C164.432 453.931 163.54 454.954 162.915 456.216C162.29 457.477 161.977 458.829 161.977 460.272V462.591C161.977 464.568 162.318 466.244 163 467.619C163.693 468.983 164.653 470.022 165.881 470.738C167.108 471.443 168.534 471.795 170.159 471.795C171.216 471.795 172.17 471.647 173.023 471.352C173.886 471.045 174.631 470.591 175.256 469.988C175.881 469.375 176.364 468.613 176.705 467.704L180.591 468.795C180.182 470.113 179.494 471.272 178.528 472.272C177.563 473.261 176.369 474.034 174.949 474.591C173.528 475.136 171.932 475.409 170.159 475.409ZM187.119 474.863V448.681H191.006V452.636H191.278C191.756 451.341 192.619 450.289 193.869 449.483C195.119 448.676 196.528 448.272 198.097 448.272C198.392 448.272 198.761 448.278 199.205 448.289C199.648 448.301 199.983 448.318 200.21 448.341V452.431C200.074 452.397 199.761 452.346 199.273 452.278C198.795 452.199 198.29 452.159 197.756 452.159C196.483 452.159 195.347 452.426 194.347 452.96C193.358 453.483 192.574 454.21 191.994 455.142C191.426 456.062 191.142 457.113 191.142 458.295V474.863H187.119ZM205.524 474.863V439.954H217.729C220.161 439.954 222.166 440.375 223.746 441.216C225.325 442.045 226.501 443.164 227.274 444.574C228.047 445.971 228.433 447.522 228.433 449.227C228.433 450.727 228.166 451.966 227.632 452.943C227.109 453.92 226.416 454.693 225.553 455.261C224.7 455.829 223.774 456.25 222.774 456.522V456.863C223.842 456.931 224.916 457.306 225.996 457.988C227.075 458.67 227.979 459.647 228.706 460.92C229.433 462.193 229.797 463.75 229.797 465.591C229.797 467.341 229.399 468.914 228.604 470.312C227.808 471.71 226.553 472.818 224.837 473.636C223.121 474.454 220.888 474.863 218.138 474.863H205.524ZM209.751 471.113H218.138C220.899 471.113 222.859 470.579 224.018 469.511C225.189 468.431 225.774 467.125 225.774 465.591C225.774 464.409 225.473 463.318 224.871 462.318C224.268 461.306 223.411 460.5 222.297 459.897C221.183 459.284 219.865 458.977 218.342 458.977H209.751V471.113ZM209.751 455.295H217.592C218.865 455.295 220.013 455.045 221.036 454.545C222.07 454.045 222.888 453.341 223.49 452.431C224.104 451.522 224.411 450.454 224.411 449.227C224.411 447.693 223.876 446.392 222.808 445.324C221.74 444.244 220.047 443.704 217.729 443.704H209.751V455.295ZM246.834 475.409C244.47 475.409 242.396 474.846 240.612 473.721C238.839 472.596 237.453 471.022 236.453 469C235.464 466.977 234.97 464.613 234.97 461.909C234.97 459.181 235.464 456.801 236.453 454.767C237.453 452.733 238.839 451.153 240.612 450.028C242.396 448.903 244.47 448.341 246.834 448.341C249.197 448.341 251.266 448.903 253.038 450.028C254.822 451.153 256.209 452.733 257.197 454.767C258.197 456.801 258.697 459.181 258.697 461.909C258.697 464.613 258.197 466.977 257.197 469C256.209 471.022 254.822 472.596 253.038 473.721C251.266 474.846 249.197 475.409 246.834 475.409ZM246.834 471.795C248.629 471.795 250.107 471.335 251.266 470.414C252.425 469.494 253.283 468.284 253.839 466.784C254.396 465.284 254.675 463.659 254.675 461.909C254.675 460.159 254.396 458.528 253.839 457.017C253.283 455.505 252.425 454.284 251.266 453.352C250.107 452.42 248.629 451.954 246.834 451.954C245.038 451.954 243.561 452.42 242.402 453.352C241.243 454.284 240.385 455.505 239.828 457.017C239.271 458.528 238.993 460.159 238.993 461.909C238.993 463.659 239.271 465.284 239.828 466.784C240.385 468.284 241.243 469.494 242.402 470.414C243.561 471.335 245.038 471.795 246.834 471.795ZM276.224 448.681V452.091H262.656V448.681H276.224ZM266.611 442.409H270.634V467.363C270.634 468.5 270.798 469.352 271.128 469.92C271.469 470.477 271.901 470.852 272.423 471.045C272.957 471.227 273.52 471.318 274.111 471.318C274.554 471.318 274.918 471.295 275.202 471.25C275.486 471.193 275.713 471.147 275.884 471.113L276.702 474.727C276.429 474.829 276.048 474.931 275.56 475.034C275.071 475.147 274.452 475.204 273.702 475.204C272.565 475.204 271.452 474.96 270.361 474.471C269.281 473.983 268.384 473.238 267.668 472.238C266.963 471.238 266.611 469.977 266.611 468.454V442.409ZM285.207 475.136C284.366 475.136 283.645 474.835 283.043 474.233C282.44 473.63 282.139 472.909 282.139 472.068C282.139 471.227 282.44 470.505 283.043 469.903C283.645 469.301 284.366 469 285.207 469C286.048 469 286.77 469.301 287.372 469.903C287.974 470.505 288.276 471.227 288.276 472.068C288.276 472.625 288.134 473.136 287.849 473.602C287.577 474.068 287.207 474.443 286.741 474.727C286.287 475 285.776 475.136 285.207 475.136ZM296.04 474.863V439.954H307.835C310.574 439.954 312.813 440.449 314.551 441.437C316.301 442.414 317.597 443.738 318.438 445.409C319.278 447.079 319.699 448.943 319.699 451C319.699 453.056 319.278 454.926 318.438 456.608C317.608 458.289 316.324 459.63 314.585 460.63C312.847 461.619 310.619 462.113 307.903 462.113H299.449V458.363H307.767C309.642 458.363 311.148 458.039 312.284 457.392C313.42 456.744 314.244 455.869 314.756 454.767C315.278 453.653 315.54 452.397 315.54 451C315.54 449.602 315.278 448.352 314.756 447.25C314.244 446.147 313.415 445.284 312.267 444.659C311.119 444.022 309.597 443.704 307.699 443.704H300.267V474.863H296.04ZM328.554 484.681C327.872 484.681 327.264 484.625 326.73 484.511C326.196 484.409 325.827 484.306 325.622 484.204L326.645 480.659C327.622 480.909 328.486 481 329.236 480.931C329.986 480.863 330.651 480.528 331.23 479.926C331.821 479.335 332.361 478.375 332.849 477.045L333.599 475L323.918 448.681H328.281L335.509 469.545H335.781L343.009 448.681H347.372L336.259 478.681C335.759 480.034 335.139 481.153 334.401 482.039C333.662 482.937 332.804 483.602 331.827 484.034C330.861 484.466 329.77 484.681 328.554 484.681Z" fill="white"/>
<mask id="mask0_5105_872" style="mask-type:alpha" maskUnits="userSpaceOnUse" x="0" y="96" width="350" height="333">
<path fill-rule="evenodd" clip-rule="evenodd" d="M70.0685 110.503L104.637 125.003L115.874 121.015C152.751 107.922 199.43 108.208 233.074 121.734L243.667 125.992L279.314 111.051C298.919 102.831 316.791 96.0846 319.028 96.0538C324.449 95.9827 332.522 102.535 333.932 108.149C335.028 112.52 333.784 117.614 322.572 154.656C312.521 187.862 312.606 186.154 320.353 200.039C338.642 232.823 348.917 271.7 349.275 309.471C349.531 336.253 346.71 349.276 336.992 366.204C318.501 398.417 276.928 420.872 224.571 426.93C202.282 429.509 146.839 429.507 124.507 426.926L75 414L29.3629 387.084L8 352L0 309.471L8 254L26.7416 201.685L35.5227 185.031L31.361 170.805C31.361 170.805 25.03 149.223 22.3818 140.233L16 116L20.3759 100.327C22.726 97.7174 29.886 96 29.886 96C32.9726 96 51.0561 102.525 70.0685 110.503Z" fill="#FF7319"/>
</mask>
<g mask="url(#mask0_5105_872)">
<g filter="url(#filter0_d_5105_872)">
<path fill-rule="evenodd" clip-rule="evenodd" d="M70.0693 110.503L104.638 125.003L115.875 121.015C152.752 107.922 199.431 108.208 233.075 121.734L243.667 125.992L279.315 111.051C298.92 102.831 316.792 96.0846 319.028 96.0538C324.45 95.9827 332.523 102.535 333.933 108.149C335.029 112.52 333.785 117.614 322.573 154.656C312.522 187.862 312.607 186.154 320.353 200.039C338.643 232.823 348.918 271.7 349.276 309.471C349.532 336.253 346.71 349.276 336.993 366.204C318.501 398.417 276.928 420.872 224.572 426.93C202.283 429.509 146.84 429.507 124.508 426.926C84.8045 422.337 52.3089 408.729 29.3636 387.084C7.68765 366.637 -0.0896109 346.08 0.000777692 309.471C0.0950126 271.977 9.34927 234.675 26.7423 201.685L35.5235 185.031L31.3618 170.805C29.0713 162.982 25.0307 149.223 22.3825 140.233C13.0783 108.649 13.0667 108.449 20.3767 100.327C22.7268 97.7174 26.5 96 29.8867 96C32.9734 96 51.0569 102.525 70.0693 110.503Z" fill="#FF7319"/>
<path d="M127.442 254.519L118.347 256.79L111.7 259.292C96.9198 264.856 83.2168 272.874 71.157 282.982C65.1099 288.051 60.0323 294.141 55.3005 300.455C41.2231 319.24 33.733 340.48 33.6567 361.83C33.5836 382.676 39.8782 394.382 57.422 406.025C75.9931 418.35 102.294 426.099 134.429 428.712C152.503 430.181 197.377 430.183 215.417 428.714C257.793 425.264 291.44 412.478 306.407 394.135C314.272 384.496 316.555 377.08 316.348 361.83C316.059 340.322 307.742 318.185 292.939 299.517L288.583 295.069C272.314 278.455 252.62 265.584 230.872 257.353L222.299 254.928C195.069 247.226 157.288 247.063 127.442 254.519Z" fill="white"/>
<path d="M281.684 116.645L252.256 129.33L262.397 135.184C272.559 141.052 301.258 167.942 306.551 176.553C309.23 180.915 309.834 179.502 318.726 148.014C332.964 97.6 330.569 95.573 281.684 116.645Z" fill="#77500C"/>
<path d="M24.5345 108.275L31.2214 145.754C36.5505 163.845 40.9103 179.171 40.9103 179.807C40.9103 180.444 44.2316 176.777 48.2914 171.657C58.8361 158.362 80.0793 139.01 89.2816 134.315C93.603 132.109 96.3877 129.669 95.4685 128.892C91.5125 125.547 32.3964 103.693 32.3964 103.693L24.5345 108.275Z" fill="#FF0000"/>
<path d="M155.951 222.657C155.951 231.154 149.063 238.042 140.566 238.042C132.069 238.042 125.181 231.154 125.181 222.657C125.181 214.16 132.069 207.272 140.566 207.272C149.063 207.272 155.951 214.16 155.951 222.657Z" fill="#FF0000"/>
<path d="M223.326 224.036C223.326 232.534 216.438 239.422 207.941 239.422C199.444 239.422 192.556 232.534 192.556 224.036C192.556 215.539 199.444 208.651 207.941 208.651C216.438 208.651 223.326 215.539 223.326 224.036Z" fill="black"/>
<path fill-rule="evenodd" clip-rule="evenodd" d="M180.129 283.654H168.59V293.682H168.578C168.586 293.894 168.59 294.108 168.59 294.323C168.59 303.882 160.841 311.631 151.281 311.631C141.722 311.631 133.973 303.882 133.973 294.323C133.973 294.108 133.977 293.894 133.985 293.682H122.441C122.436 293.895 122.434 294.109 122.434 294.323C122.434 310.255 135.35 323.17 151.282 323.17C160.718 323.17 169.096 318.639 174.36 311.634C179.623 318.639 188.001 323.17 197.438 323.17C213.37 323.17 226.285 310.255 226.285 294.323C226.285 294.109 226.283 293.895 226.278 293.682H214.734C214.742 293.894 214.746 294.108 214.746 294.323C214.746 303.882 206.997 311.631 197.438 311.631C187.878 311.631 180.129 303.882 180.129 294.323C180.129 294.108 180.133 293.894 180.141 293.682H180.129V283.654Z" fill="black"/>
<mask id="path-7-inside-1_5105_872" fill="white">
<path fill-rule="evenodd" clip-rule="evenodd" d="M165.051 254.808C158.51 254.808 151.922 258.523 151.922 265.064V265.064C151.922 277.456 161.968 287.501 174.359 287.501C186.751 287.501 196.796 277.456 196.796 265.064V265.064C196.796 258.523 190.209 254.808 183.668 254.808H165.051Z"/>
</mask>
<path fill-rule="evenodd" clip-rule="evenodd" d="M165.051 254.808C158.51 254.808 151.922 258.523 151.922 265.064V265.064C151.922 277.456 161.968 287.501 174.359 287.501C186.751 287.501 196.796 277.456 196.796 265.064V265.064C196.796 258.523 190.209 254.808 183.668 254.808H165.051Z" fill="#77500C"/>
<path d="M174.359 276.374C168.113 276.374 163.05 271.311 163.05 265.064H140.795C140.795 283.601 155.822 298.629 174.359 298.629V276.374ZM185.669 265.064C185.669 271.311 180.605 276.374 174.359 276.374V298.629C192.896 298.629 207.923 283.601 207.923 265.064H185.669ZM183.668 243.68H165.051V265.935H183.668V243.68ZM207.923 265.064C207.923 257.558 203.974 251.846 199.119 248.405C194.49 245.124 188.869 243.68 183.668 243.68V265.935C184.268 265.935 184.851 266.022 185.349 266.168C185.854 266.316 186.144 266.486 186.251 266.562C186.349 266.631 186.184 266.541 185.987 266.195C185.765 265.802 185.669 265.371 185.669 265.064H207.923ZM163.05 265.064C163.05 265.371 162.954 265.802 162.731 266.195C162.534 266.541 162.369 266.631 162.468 266.562C162.574 266.486 162.864 266.316 163.369 266.168C163.867 266.022 164.451 265.935 165.051 265.935V243.68C159.849 243.68 154.229 245.124 149.6 248.405C144.744 251.846 140.795 257.558 140.795 265.064H163.05Z" fill="black" mask="url(#path-7-inside-1_5105_872)"/>
</g>
<rect y="96" width="175" height="334" fill="black" fill-opacity="0.54"/>
<rect x="161" y="265" width="14" height="13" fill="black"/>
</g>
<defs>
<filter id="filter0_d_5105_872" x="-4" y="96" width="357.292" height="341.814" filterUnits="userSpaceOnUse" color-interpolation-filters="sRGB">
<feFlood flood-opacity="0" result="BackgroundImageFix"/>
<feColorMatrix in="SourceAlpha" type="matrix" values="0 0 0 0 0 0 0 0 0 0 0 0 0 0 0 0 0 0 127 0" result="hardAlpha"/>
<feOffset dy="4"/>
<feGaussianBlur stdDeviation="2"/>
<feComposite in2="hardAlpha" operator="out"/>
<feColorMatrix type="matrix" values="0 0 0 0 0 0 0 0 0 0 0 0 0 0 0 0 0 0 0.25 0"/>
<feBlend mode="normal" in2="BackgroundImageFix" result="effect1_dropShadow_5105_872"/>
<feBlend mode="normal" in="SourceGraphic" in2="effect1_dropShadow_5105_872" result="shape"/>
</filter>
<linearGradient id="paint0_linear_5105_872" x1="49" y1="16.4727" x2="176.397" y2="125.033" gradientUnits="userSpaceOnUse">
<stop stop-color="#5A9FD4"/>
<stop offset="1" stop-color="#306998"/>
</linearGradient>
<linearGradient id="paint1_linear_5105_872" x1="192.267" y1="216.994" x2="146.562" y2="152.948" gradientUnits="userSpaceOnUse">
<stop stop-color="#FFD43B"/>
<stop offset="1" stop-color="#FFE873"/>
</linearGradient>
<clipPath id="clip0_5105_872">
<rect width="225" height="227.027" fill="white" transform="translate(49 16.4727)"/>
</clipPath>
</defs>
</svg>
